<svg width="8" height="13" viewBox="0 0 8 13" fill="none" xmlns="http://www.w3.org/2000/svg">
<path d="M1.26684 13C1.44765 13 1.60673 12.9252 1.73687 12.798L7.46421 7.00115C7.6016 6.85903 7.6739 6.68698 7.6739 6.5C7.6739 6.30552 7.6016 6.126 7.46421 5.99885L1.73687 0.20942C1.61395 0.0748064 1.44765 0 1.26684 0C0.89082 0 0.601562 0.299194 0.601562 0.688131C0.601562 0.867647 0.681105 1.0472 0.796777 1.17434L6.05405 6.5L0.796777 11.8257C0.681105 11.9528 0.601562 12.1249 0.601562 12.3118C0.601562 12.7008 0.89082 13 1.26684 13Z" fill="black"/>
</svg>
