<svg fill="current" width="current" height="current" viewBox="0 0 56 56" xmlns="http://www.w3.org/2000/svg"><path d="M11.992 49.574h32.016c4.899 0 7.36-2.437 7.36-7.265V13.69c0-4.828-2.461-7.265-7.36-7.265H11.992c-4.875 0-7.36 2.414-7.36 7.265V42.31c0 4.851 2.485 7.265 7.36 7.265zm-.328-3.773c-2.086 0-3.258-1.102-3.258-3.282V20.419c0-2.156 1.172-3.281 3.258-3.281h32.649c2.085 0 3.28 1.125 3.28 3.281V42.52c0 2.18-1.195 3.28-3.28 3.28zm11.742-20.25h1.383c.82 0 1.102-.235 1.102-1.055v-1.383c0-.82-.281-1.078-1.102-1.078h-1.383c-.82 0-1.078.258-1.078 1.078v1.383c0 .82.258 1.055 1.078 1.055zm7.805 0h1.36c.843 0 1.101-.235 1.101-1.055v-1.383c0-.82-.258-1.078-1.102-1.078h-1.359c-.82 0-1.101.258-1.101 1.078v1.383c0 .82.28 1.055 1.101 1.055zm7.781 0h1.383c.82 0 1.102-.235 1.102-1.055v-1.383c0-.82-.282-1.078-1.102-1.078h-1.383c-.82 0-1.101.258-1.101 1.078v1.383c0 .82.281 1.055 1.101 1.055zm-23.367 7.664h1.383c.82 0 1.102-.235 1.102-1.055v-1.383c0-.82-.282-1.054-1.102-1.054h-1.383c-.82 0-1.101.234-1.101 1.054v1.383c0 .82.28 1.055 1.101 1.055zm7.781 0h1.383c.82 0 1.102-.235 1.102-1.055v-1.383c0-.82-.281-1.054-1.102-1.054h-1.383c-.82 0-1.078.234-1.078 1.054v1.383c0 .82.258 1.055 1.078 1.055zm7.805 0h1.36c.843 0 1.101-.235 1.101-1.055v-1.383c0-.82-.258-1.054-1.102-1.054h-1.359c-.82 0-1.101.234-1.101 1.054v1.383c0 .82.28 1.055 1.101 1.055zm7.781 0h1.383c.82 0 1.102-.235 1.102-1.055v-1.383c0-.82-.282-1.054-1.102-1.054h-1.383c-.82 0-1.101.234-1.101 1.054v1.383c0 .82.281 1.055 1.101 1.055zm-23.367 7.687h1.383c.82 0 1.102-.258 1.102-1.078v-1.383c0-.82-.282-1.054-1.102-1.054h-1.383c-.82 0-1.101.234-1.101 1.054v1.383c0 .82.28 1.078 1.101 1.078zm7.781 0h1.383c.82 0 1.102-.258 1.102-1.078v-1.383c0-.82-.281-1.054-1.102-1.054h-1.383c-.82 0-1.078.234-1.078 1.054v1.383c0 .82.258 1.078 1.078 1.078zm7.805 0h1.36c.843 0 1.101-.258 1.101-1.078v-1.383c0-.82-.258-1.054-1.102-1.054h-1.359c-.82 0-1.101.234-1.101 1.054v1.383c0 .82.28 1.078 1.101 1.078z"/></svg>