<svg width="160" height="160" viewBox="0 0 600 600" fill="none" xmlns="http://www.w3.org/2000/svg"><mask id="a" style="mask-type:luminance" maskUnits="userSpaceOnUse" x="0" y="0" width="600" height="498"><path d="M600 0H0v498h600V0z" fill="#fff"/></mask><g mask="url(#a)"><path d="M300 580c154.64 0 280-125.36 280-280S454.64 20 300 20 20 145.36 20 300s125.36 280 280 280z" fill="#000"/></g><path d="M300 345c63.513 0 115-51.487 115-115s-51.487-115-115-115-115 51.487-115 115 51.487 115 115 115z" fill="#fff"/><mask id="b" style="mask-type:luminance" maskUnits="userSpaceOnUse" x="20" y="20" width="560" height="560"><path d="M300 580c154.64 0 280-125.36 280-280S454.64 20 300 20 20 145.36 20 300s125.36 280 280 280z" fill="#fff"/></mask><g mask="url(#b)"><path d="M300 755c113.218 0 205-91.782 205-205s-91.782-205-205-205S95 436.782 95 550s91.782 205 205 205z" fill="#fff"/></g></svg>