<svg width="current" height="curretn" viewBox="0 0 157 157" fill="none" xmlns="http://www.w3.org/2000/svg"><path d="m78.034 1.937-.064-.003-.064.005c-1.22.1-2.42.18-3.605.26-2.978.2-5.851.393-8.651.87C21.103 10.673-3.566 52.16 1.793 89.472c5.261 36.634 37.467 66.1 74.531 66.339 11.468.074 22.935.043 34.397.013l1.508-.004c11.965-.032 23.926-.059 35.884.038 2.562.021 4.468-.455 5.655-1.842 1.15-1.342 1.395-3.289 1.377-5.538-.088-11.141-.089-22.283-.091-33.43v-.474c-.001-11.304-.003-22.612-.098-33.92-.129-15.334-3.668-29.896-12.235-42.919C127.548 14.673 105.798 3.21 78.034 1.937zM12.271 87.61C7.37 51.926 33.146 17.377 70.16 13.19c25.37-2.048 45.559 6.283 60.482 25.616 29.975 38.833 7.624 96.356-40.662 105.353-37.165 6.924-72.572-19.152-77.709-56.548z" fill="#000" stroke="#000" stroke-width="2"/></svg>