<!DOCTYPE svg PUBLIC "-//W3C//DTD SVG 1.1//EN" "http://www.w3.org/Graphics/SVG/1.1/DTD/svg11.dtd">

<!-- Uploaded to: SVG Repo, www.svgrepo.com, Transformed by: SVG Repo Mixer Tools -->
<svg version="1.1" id="Layer_1" xmlns="http://www.w3.org/2000/svg" xmlns:xlink="http://www.w3.org/1999/xlink" viewBox="0 0 512 512" xml:space="preserve" width="current" height="current" fill="#000000">

<g id="SVGRepo_bgCarrier" stroke-width="0"/>

<g id="SVGRepo_tracerCarrier" stroke-linecap="round" stroke-linejoin="round"/>

<g id="SVGRepo_iconCarrier"> <circle style="fill:#283B7A;" cx="256" cy="256" r="256"/> <path style="opacity:0.1;enable-background:new ;" d="M506.875,307.173L362.747,163.045l-53.707-53.707H149.2v293.333 l109.264,109.264C381.221,510.773,483.323,423.253,506.875,307.173z"/> <polygon style="fill:#FFFFFF;" points="309.035,109.333 149.227,109.333 149.227,402.667 362.773,402.667 362.773,163.067 "/> <g> <polygon style="fill:#EBF0F3;" points="309.035,163.067 362.773,163.067 309.035,109.333 "/> <rect x="166.88" y="187.147" style="fill:#EBF0F3;" width="178.213" height="5.333"/> <rect x="166.88" y="216.325" style="fill:#EBF0F3;" width="178.213" height="5.333"/> <rect x="166.88" y="245.493" style="fill:#EBF0F3;" width="178.213" height="5.333"/> <rect x="166.88" y="274.667" style="fill:#EBF0F3;" width="108.757" height="5.333"/> <rect x="166.88" y="303.824" style="fill:#EBF0F3;" width="178.213" height="5.333"/> <rect x="166.88" y="333.013" style="fill:#EBF0F3;" width="178.213" height="5.333"/> <rect x="166.88" y="362.16" style="fill:#EBF0F3;" width="78.491" height="5.333"/> </g> </g>

</svg>