<svg xmlns="http://www.w3.org/2000/svg" viewBox="0 0 256 256" xml:space="preserve"><path d="M155.5 99.6c-1.8-1.8-3.7-3.4-5.7-4.9l-18.4 18.4c2.1 1.3 4.2 2.8 6 4.6l.9.9c11.8 11.8 11.8 30.9 0 42.7L88 211.6c-11.8 11.8-30.9 11.8-42.7 0l-.9-.9c-11.8-11.8-11.8-30.9 0-42.7l22.7-22.7c-3.9-9.8-5.8-20.2-5.6-30.5l-35.2 35.1c-21.7 21.7-21.7 57.2 0 78.9l.9.9c21.7 21.7 57.2 21.7 78.9 0l50.3-50.3c21.7-21.7 21.7-57.2 0-78.9l-.9-.9z"/><path d="m229.7 27.2-.9-.9c-21.7-21.7-57.2-21.7-78.9 0L99.6 76.5c-21.7 21.7-21.7 57.2 0 78.9l.9.9c1.8 1.8 3.7 3.4 5.7 5l18.4-18.4c-2.1-1.3-4.2-2.8-6-4.6l-.9-.9c-11.8-11.8-11.8-30.9 0-42.7L168 44.4c11.8-11.8 30.9-11.8 42.7 0l.9.9c11.8 11.8 11.8 30.9 0 42.7l-22.7 22.7c3.9 9.8 5.8 20.2 5.7 30.5l35.2-35.2c21.6-21.6 21.6-57.1-.1-78.8z"/></svg>