<svg width="current" height="current" viewBox="0 0 24 24" fill="none" xmlns="http://www.w3.org/2000/svg"><path d="M12 24c6.553 0 12-5.435 12-12 0-6.553-5.459-12-12.012-12C5.423 0 0 5.447 0 12c0 6.565 5.435 12 12 12zm0-2a9.952 9.952 0 0 1-9.988-10c0-5.541 4.423-10 9.976-10 5.541 0 10 4.459 10.012 10 .012 5.553-4.459 10-10 10zm-.106-14.188c.859 0 1.53-.683 1.53-1.53 0-.858-.671-1.54-1.53-1.54s-1.53.682-1.53 1.54c0 .847.671 1.53 1.53 1.53zM9.93 18.47h4.8c.483 0 .86-.342.86-.824 0-.459-.377-.823-.86-.823h-1.458v-5.989c0-.635-.33-1.059-.918-1.059h-2.224a.831.831 0 0 0-.847.824c0 .482.377.824.847.824H11.4v5.4H9.93a.831.831 0 0 0-.848.823c0 .482.377.824.847.824z" fill="#000"/></svg>