<?xml version="1.0" encoding="utf-8"?>
<!-- Uploaded to: SVG Repo, www.svgrepo.com, Generator: SVG Repo Mixer Tools -->
<svg width="800px" height="800px" viewBox="0 0 24 24" fill="none" xmlns="http://www.w3.org/2000/svg">
<g id="Iconly/Curved/Password">
<g id="Password">
<path id="Stroke 1" fill-rule="evenodd" clip-rule="evenodd" d="M10.6887 11.9999C10.6887 13.0229 9.85974 13.8519 8.83674 13.8519C7.81374 13.8519 6.98474 13.0229 6.98474 11.9999C6.98474 10.9769 7.81374 10.1479 8.83674 10.1479H8.83974C9.86174 10.1489 10.6887 10.9779 10.6887 11.9999Z" stroke="#130F26" stroke-width="1.5" stroke-linecap="round" stroke-linejoin="round"/>
<path id="Stroke 3" d="M10.6918 12H17.0098V13.852" stroke="#130F26" stroke-width="1.5" stroke-linecap="round" stroke-linejoin="round"/>
<path id="Stroke 5" d="M14.182 13.852V12" stroke="#130F26" stroke-width="1.5" stroke-linecap="round" stroke-linejoin="round"/>
<path id="Stroke 7" fill-rule="evenodd" clip-rule="evenodd" d="M2.74988 12C2.74988 5.063 5.06288 2.75 11.9999 2.75C18.9369 2.75 21.2499 5.063 21.2499 12C21.2499 18.937 18.9369 21.25 11.9999 21.25C5.06288 21.25 2.74988 18.937 2.74988 12Z" stroke="#130F26" stroke-width="1.5" stroke-linecap="round" stroke-linejoin="round"/>
</g>
</g>
</svg>