<svg width="800" height="800" viewBox="0 0 24 24" fill="none" xmlns="http://www.w3.org/2000/svg"><path fill-rule="evenodd" clip-rule="evenodd" d="M20.848 1.879a3 3 0 0 0-4.243 0L2.447 16.036a3 3 0 0 0-.82 1.533l-.587 2.936a2 2 0 0 0 2.353 2.353l2.936-.587a3 3 0 0 0 1.533-.82L22.019 7.293a3 3 0 0 0 0-4.243L20.848 1.88zm-2.829 1.414a1 1 0 0 1 1.415 0l1.171 1.171a1 1 0 0 1 0 1.415L17.933 8.55l-2.585-2.586 2.671-2.671zm-4.086 4.086L3.862 17.45a1 1 0 0 0-.274.51l-.587 2.936 2.935-.587a1 1 0 0 0 .511-.274L16.52 9.964 13.933 7.38z" fill="#0F0F0F"/></svg>