<svg width="current" height="current" viewBox="0 0 24 24" fill="none" xmlns="http://www.w3.org/2000/svg"><path fill-rule="evenodd" clip-rule="evenodd" d="M19.65.8C18.482-.73 16.01.08 16.01 1.993v1.92c-3.773-.045-6.353 1.252-8.072 3.063-1.838 1.935-2.593 4.355-2.91 6.01-.158.827.384 1.428.955 1.635.544.198 1.272.113 1.758-.442 1.38-1.576 4.059-3.776 8.268-3.633v2.46c0 1.913 2.474 2.724 3.64 1.194l3.744-4.91a2.945 2.945 0 0 0 0-3.58L19.65.8zM7.482 11.61c1.805-1.576 4.397-3.054 8.527-3.054h1.012c.558 0 1.01.445 1.01.994v3.457l3.744-4.91a.981.981 0 0 0 0-1.194l-3.743-4.91v2.914c0 .55-.453.995-1.012.995h-1.01c-4.55 0-6.594 2.431-6.594 2.431-.94.991-1.546 2.169-1.934 3.277z" fill="#0F0F0F"/><path d="M7 1.004H4a3 3 0 0 0-3 3v16a3 3 0 0 0 3 3h16a3 3 0 0 0 3-3v-3a1 1 0 1 0-2 0v3a1 1 0 0 1-1 1H4a1 1 0 0 1-1-1v-16a1 1 0 0 1 1-1h3a1 1 0 0 0 0-2z" fill="#0F0F0F"/></svg>