<svg width="current" height="current" viewBox="0 0 56 56" xmlns="http://www.w3.org/2000/svg"><path d="M7.715 49.574h40.57c4.899 0 7.36-2.437 7.36-7.265V13.69c0-4.828-2.461-7.265-7.36-7.265H7.715C2.84 6.426.355 8.84.355 13.69V42.31c0 4.851 2.485 7.265 7.36 7.265zm.07-3.773c-2.344 0-3.656-1.242-3.656-3.68V13.88c0-2.438 1.312-3.68 3.656-3.68h26.367v35.602zm40.43-35.602c2.32 0 3.656 1.242 3.656 3.68V42.12c0 2.438-1.336 3.68-3.656 3.68H37.832V10.199zm-5.883 8.696h5.016c.726 0 1.336-.633 1.336-1.313 0-.703-.61-1.312-1.336-1.312h-5.016c-.703 0-1.336.609-1.336 1.312 0 .68.633 1.313 1.336 1.313zm0 6.07h5.016c.726 0 1.336-.633 1.336-1.336 0-.703-.61-1.29-1.336-1.29h-5.016c-.703 0-1.336.587-1.336 1.29 0 .703.633 1.336 1.336 1.336zm0 6.047h5.016c.726 0 1.336-.586 1.336-1.29 0-.702-.61-1.312-1.336-1.312h-5.016c-.703 0-1.336.61-1.336 1.313s.633 1.289 1.336 1.289z"/></svg>