<svg width="current" height="current" viewBox="0 0 56 56" xmlns="http://www.w3.org/2000/svg"><path d="M7.715 49.574h40.57c4.899 0 7.36-2.437 7.36-7.265V13.69c0-4.828-2.461-7.265-7.36-7.265H7.715C2.84 6.426.355 8.84.355 13.69V42.31c0 4.851 2.485 7.265 7.36 7.265zm.07-3.773c-2.344 0-3.656-1.242-3.656-3.68V13.88c0-2.438 1.312-3.68 3.656-3.68h10.43v35.602zm40.43-35.602c2.32 0 3.656 1.242 3.656 3.68V42.12c0 2.438-1.336 3.68-3.656 3.68h-26.32V10.199zm-34.5 8.696c.703 0 1.336-.633 1.336-1.313 0-.703-.633-1.312-1.336-1.312h-5.04c-.702 0-1.312.609-1.312 1.312 0 .68.61 1.313 1.313 1.313zm0 6.07c.703 0 1.336-.633 1.336-1.336 0-.703-.633-1.29-1.336-1.29h-5.04c-.702 0-1.312.587-1.312 1.29 0 .703.61 1.336 1.313 1.336zm0 6.047c.703 0 1.336-.586 1.336-1.29 0-.702-.633-1.312-1.336-1.312h-5.04c-.702 0-1.312.61-1.312 1.313s.61 1.289 1.313 1.289z"/></svg>