<?xml version="1.0" encoding="iso-8859-1"?>
<!-- Uploaded to: SVG Repo, www.svgrepo.com, Generator: SVG Repo Mixer Tools -->
<svg fill="current" height="current" width="current" version="1.1" id="Layer_1" xmlns="http://www.w3.org/2000/svg" xmlns:xlink="http://www.w3.org/1999/xlink" 
	 viewBox="0 0 490.9 490.9" xml:space="preserve">
<g>
	<g>
		<path d="M470,448.7h-53.2V286.1c0-11.5-9.4-20.8-20.8-20.8s-20.8,9.4-20.8,20.8v162.6h-85.5V236.1c0-11.5-9.4-20.8-20.8-20.8
			s-20.8,9.4-20.8,20.8v212.6h-86.5V344.5c0-11.5-9.4-20.8-20.8-20.8s-20.8,9.4-20.8,20.8v104.2H41.6V33.9
			c0-11.5-9.4-20.8-20.8-20.8C9.3,13.1,0,22.5,0,33.9v435.7c0,11.5,9.4,20.8,20.8,20.8H469c11.5,0,21.9-9.4,21.9-20.8
			S481.5,448.7,470,448.7z"/>
		<path d="M140.7,295.5c35.4,0,63.6-29.2,64.6-63.6c0-14-4.6-26.9-12.3-37.4l56.7-69.9c6.1,1.9,12.5,3,19.1,3
			c8.1,0,15.9-1.6,23.2-4.4l44.5,42.4c-2.6,7-4,14.6-4,22.5c0,35.4,29.2,63.6,63.6,63.6s63.6-28.1,63.6-63.6
			c0-35.4-29.2-63.6-63.6-63.6c-12.2,0-23.5,3.3-33.2,9.2l-39.3-37.4c5.6-9.4,8.8-20.4,8.8-32.2c0-35.4-29.2-63.6-63.6-63.6
			c-35.4,0-63.6,28.1-63.6,63.6c0,13.3,4.1,25.6,11.1,35.8l-57.5,70.9c-5.5-1.6-11.3-2.4-17.2-2.4c-35.4,0-63.6,28.1-63.6,63.6
			C78.1,266.3,106.3,295.5,140.7,295.5z M396,166.3c12.5,0,21.9,9.4,22.9,22.9c0,12.5-10.4,22.9-22.9,22.9s-22.9-10.4-22.9-22.9
			S383.5,166.3,396,166.3z M268.9,41.2c11.5,0,22.9,10.4,22.9,22.9s-10.4,23-22.9,23S246,76.7,246,64.2S256.3,41.2,268.9,41.2z
			 M140.7,209c12.5,0,22.9,10.4,22.9,22.9s-10.4,22.9-22.9,22.9s-22.9-10.4-22.9-22.9C117.7,219.4,128.1,209,140.7,209z"/>
	</g>
</g>
</svg>