<svg fill="current" height="current" width="current" xmlns="http://www.w3.org/2000/svg" viewBox="0 0 490.9 490.9" xml:space="preserve"><path d="M470 448.7h-53.2V286.1c0-11.5-9.4-20.8-20.8-20.8s-20.8 9.4-20.8 20.8v162.6h-85.5V236.1c0-11.5-9.4-20.8-20.8-20.8s-20.8 9.4-20.8 20.8v212.6h-86.5V344.5c0-11.5-9.4-20.8-20.8-20.8s-20.8 9.4-20.8 20.8v104.2H41.6V33.9c0-11.5-9.4-20.8-20.8-20.8C9.3 13.1 0 22.5 0 33.9v435.7c0 11.5 9.4 20.8 20.8 20.8H469c11.5 0 21.9-9.4 21.9-20.8s-9.4-20.9-20.9-20.9z"/><path d="M140.7 295.5c35.4 0 63.6-29.2 64.6-63.6 0-14-4.6-26.9-12.3-37.4l56.7-69.9c6.1 1.9 12.5 3 19.1 3 8.1 0 15.9-1.6 23.2-4.4l44.5 42.4c-2.6 7-4 14.6-4 22.5 0 35.4 29.2 63.6 63.6 63.6s63.6-28.1 63.6-63.6c0-35.4-29.2-63.6-63.6-63.6-12.2 0-23.5 3.3-33.2 9.2l-39.3-37.4c5.6-9.4 8.8-20.4 8.8-32.2 0-35.4-29.2-63.6-63.6-63.6-35.4 0-63.6 28.1-63.6 63.6 0 13.3 4.1 25.6 11.1 35.8l-57.5 70.9c-5.5-1.6-11.3-2.4-17.2-2.4-35.4 0-63.6 28.1-63.6 63.6.1 34.3 28.3 63.5 62.7 63.5zM396 166.3c12.5 0 21.9 9.4 22.9 22.9 0 12.5-10.4 22.9-22.9 22.9s-22.9-10.4-22.9-22.9 10.4-22.9 22.9-22.9zM268.9 41.2c11.5 0 22.9 10.4 22.9 22.9s-10.4 23-22.9 23S246 76.7 246 64.2s10.3-23 22.9-23zM140.7 209c12.5 0 22.9 10.4 22.9 22.9s-10.4 22.9-22.9 22.9-22.9-10.4-22.9-22.9c-.1-12.5 10.3-22.9 22.9-22.9z"/></svg>