<svg width="11" height="13" fill="none" xmlns="http://www.w3.org/2000/svg"><path d="M2.39 13h6.225c1.213 0 1.817-.63 1.817-1.898V1.904C10.432.643 9.828 0 8.615 0H2.389C1.182 0 .573.643.573 1.904v9.198C.572 12.37 1.182 13 2.39 13zm.046-.976c-.603 0-.92-.334-.92-.94V1.922c0-.6.317-.946.926-.946h6.126c.61 0 .92.34.92.946v9.162c0 .606-.31.94-.914.94H2.436zm.85-8.513H7.73a.37.37 0 0 0 .363-.382.358.358 0 0 0-.363-.364H3.286a.356.356 0 0 0-.369.364c0 .212.152.382.37.382zm0 2.116H7.73a.37.37 0 0 0 .363-.382.358.358 0 0 0-.363-.364H3.286a.356.356 0 0 0-.369.364c0 .212.152.382.37.382zm0 2.116h2.105a.363.363 0 0 0 .363-.37.364.364 0 0 0-.363-.376H3.286a.362.362 0 0 0-.369.376c0 .206.152.37.37.37z" fill="#000"/></svg>