<svg width="14" height="14" viewBox="0 0 14 14" fill="none" xmlns="http://www.w3.org/2000/svg">
<path d="M6.9943 1.00023L6.98932 1L6.98436 1.00041C6.88936 1.00821 6.79581 1.0145 6.70354 1.02069C6.47163 1.03627 6.24785 1.0513 6.02975 1.08856C2.56035 1.68121 0.639097 4.91555 1.05643 7.82447C1.46618 10.6805 3.97444 12.9777 6.86112 12.9963C7.75423 13.0021 8.64736 12.9996 9.54005 12.9973L9.6575 12.997C10.5894 12.9945 11.5209 12.9924 12.4523 12.9999C12.6518 13.0016 12.8002 12.9645 12.8927 12.8563C12.9823 12.7517 13.0013 12.5999 12.9999 12.4246C12.9931 11.556 12.993 10.6874 12.9928 9.81837V9.78142C12.9928 8.90015 12.9926 8.01857 12.9852 7.13697C12.9752 5.94157 12.6995 4.8063 12.0323 3.79103C10.8506 1.99313 9.15663 1.09941 6.9943 1.00023ZM1.87248 7.67938C1.49069 4.89745 3.49826 2.20392 6.38102 1.87742C8.35688 1.71782 9.92931 2.36726 11.0916 3.8745C13.4261 6.90198 11.6853 11.3865 7.92464 12.0879C5.03016 12.6277 2.27258 10.5948 1.87248 7.67938Z" fill="black" stroke="black" stroke-width="0.5"/>
</svg>
